<?xml version="1.0" encoding="UTF-8"?>
<!-- Created with Inkscape (http://www.inkscape.org/) -->
<svg width="32" height="32" version="1.1" viewBox="0 0 8.4667 8.4667" xmlns="http://www.w3.org/2000/svg">
 <rect y="8.8818e-16" width="8.4667" height="8.4667" ry="2.5213" fill="#bcc4c9"/>
 <rect y="2.3515" width="8.4667" height="4.3765" ry="0" fill="#fff"/>
 <g transform="matrix(.01815 0 0 -.01815 8.9316 4.2953)">
  <path d="m0 0-15.251-15.852-29.311-30.475-0.333 102.62-12.878 2.449-33.125-88.405-0.279 85.956-10.811 3.182-49.442-80.789-0.176 54.464-9.147 3.573-56.158-64.321-0.197 60.748-8.167 3.189-57.133-65.436-0.202 62.247-7.186 2.807-58.109-66.554-0.207 63.747-6.591 1.899-51.58-86.399-0.35 107.64-5.45 0.956-36.383-105.92-0.34 104.96-3.486 1.389-56.562-63.105 5.76-1.159 50.254 57.63-0.37-113.94 4.653-0.816 36.259 103.36-0.333-102.54 5.913-1.704 51.448 84.906-0.198-61.04 6.625-2.588 57.958 65.502-0.204-62.914 7.605-2.97 56.972 64.388-0.199-61.418 8.585-3.354 55.987 63.276-0.194-59.922 10.124-2.98 49.255 79.31-0.323-99.474 12.071-2.295 32.867 86.007-0.271-83.712 12.07-5.058 41.589 42.671 20.738 21.276z" fill="#231f20"/>
 </g>
 <path d="m8.4667 2.3515h-8.4667" fill="none" stroke="#dc143c" stroke-width=".26458px"/>
</svg>
